<?xml version="1.0" encoding="utf-8"?>
<!-- Generator: Adobe Illustrator 25.4.1, SVG Export Plug-In . SVG Version: 6.00 Build 0)  -->
<svg version="1.1" xmlns="http://www.w3.org/2000/svg" xmlns:xlink="http://www.w3.org/1999/xlink" x="0px" y="0px"
	 viewBox="0 0 833 192" enable-background="new 0 0 833 192" xml:space="preserve">
<g id="BD_1_" enable-background="new    ">
	<g id="BD">
		<g>
			<path fill="#ED1E25" d="M598.43,69.92h53.85l5.8-21.76h-53.85L598.43,69.92z M586.95,112.97h53.85l5.72-21.45h-53.85
				L586.95,112.97z M712.69,48.16l-17.27,64.81h53.85l11.52-43.2l-15.84-21.6H712.69z M568.31,0.29l-46.88,159.43h264.55
				L832.86,0.29H568.31z M659.33,123.92l-13.48,10.65h-86.25l28.79-108.01h86.25l7.73,10.96l-8.64,32.4l-13.53,10.8l7.77,10.8
				L659.33,123.92z M767.79,123.92l-13.48,10.65h-86.25l28.79-108.01h64.65l23.61,32.4L767.79,123.92z"/>
		</g>
	</g>
</g>
<g id="Rectangle_1_1_" enable-background="new    ">
	<g>
		<g id="Rectangle_1">
			<g>
				<path fill="#1E1E1E" d="M36.91,26.56L23.34,37.52L0.31,123.92l7.81,10.65h75.61l13.48-10.65l13.65-51.23H82.45
					c-0.43-0.58-0.78-1.03-0.98-1.23C77.45,67.51,74.32,64,67.67,64c-3.96,0-8.84,1.5-11.26,3.09c-1.98,1.3-5.93,4.96-6.41,7.15
					l15.73-0.01L69.32,83l-7.33,8.77l-15.73,0.01c0.53,2.19,4.59,5.85,6.6,7.14c2.47,1.59,6.38,3.09,10.34,3.09
					c6.65,0,10.71-2.52,14.62-6.49c0.55-0.56,1.02-0.9,1.43-1.22h4.41l-4.98,18.67H24.83l17.27-64.81h53.85l-2.88,10.8h21.45
					l5.72-21.45l-7.73-10.96H36.91z M246.1,26.56l-40.93,32.56l-20.11,75.45h21.6l8.6-32.25h53.85l-8.6,32.25h21.45l28.79-108.01
					H246.1z M274.87,80.72h-53.85l2.88-10.8l27.25-21.76h32.4L274.87,80.72z M416.3,37.52l-7.73-10.96h-86.25l-28.79,108.01h21.6
					l8.6-32.25h32.25l7.96,10.65l7.88,10.96l-2.84,10.65h21.45l5.76-21.6l-7.81-10.65l13.53-10.8L416.3,37.52z M383.33,80.72h-53.85
					l8.68-32.56h53.85L383.33,80.72z M519.04,58.96l5.72-21.45l-7.73-10.96h-75.61l-13.57,10.96l-12.34,46.29l8.59,7.71h64.81
					l-5.72,21.45h-53.85l2.84-10.65h-21.6l-5.76,21.6l7.81,10.65h75.61l13.48-10.65l11.56-43.36l-7.77-10.8h-64.65l5.76-21.6h53.85
					l-2.88,10.8H519.04z"/>
			</g>
		</g>
		<polygon fill="#1E1E1E" points="190,48 128.97,48 134.73,26.56 205.38,26.56 		"/>
		<polygon fill="#1E1E1E" points="166.97,134.44 105.93,134.44 111.69,113 182.35,113 		"/>
		<polygon fill="#1E1E1E" points="165.04,91 117.45,91 123.21,70 180.36,70 		"/>
	</g>
</g>
<g id="No_BULLSHIT">
	
		<text transform="matrix(0.9816 0 -0.1908 0.9816 -6.4161 190.435)" fill="#ED1E25" font-family="'ShentoxW04-Bold'" font-size="58.6691px">NO BULLSHIT</text>
</g>
</svg>
